<?xml version="1.0" encoding="UTF-8" standalone="no"?>
<!DOCTYPE svg PUBLIC "-//W3C//DTD SVG 1.1//EN" "http://www.w3.org/Graphics/SVG/1.1/DTD/svg11.dtd">
<svg width="100%" height="100%" viewBox="0 0 148 83" version="1.1" xmlns="http://www.w3.org/2000/svg"
     xmlns:xlink="http://www.w3.org/1999/xlink" xml:space="preserve" xmlns:serif="http://www.serif.com/"
     style="fill-rule:evenodd;clip-rule:evenodd;stroke-miterlimit:2;">
    <g>
        <path d="M147.527,41.772C147.527,64.473 114.525,82.875 73.825,82.875C33.121,82.875 0.125,64.473 0.125,41.772C0.125,19.072 33.121,0.67 73.825,0.67C114.525,0.67 147.527,19.072 147.527,41.772Z"
              style="fill:none;stroke:rgb(17,21,23);stroke-width:0.25px;"/>
        <path d="M144.693,41.772C144.693,62.907 112.96,80.041 73.825,80.041C34.686,80.041 2.959,62.907 2.959,41.772C2.959,20.638 34.686,3.505 73.825,3.505C112.96,3.505 144.693,20.638 144.693,41.772Z"
              style="fill:none;stroke:rgb(17,21,23);stroke-width:1.5px;stroke-linecap:round;stroke-linejoin:round;"/>
        <path d="M106.567,65.686C123.525,60.653 134.771,51.823 134.771,41.773C134.771,33.246 126.675,25.598 113.866,20.402"
              style="fill:none;stroke:rgb(17,21,23);stroke-width:0.75px;stroke-linecap:round;stroke-linejoin:round;"/>
        <path d="M33.952,20.334C21.045,25.532 12.88,33.209 12.88,41.773C12.88,51.909 24.318,60.801 41.519,65.813"
              style="fill:none;stroke:rgb(17,21,23);stroke-width:0.75px;stroke-linecap:round;stroke-linejoin:round;"/>
        <path d="M76.972,36.013C76.192,38.893 74.542,43.303 74.304,47.19C74.204,48.84 73.73,51.913 75.905,51.981C76.487,47.294 77.378,41.424 78.831,36.811C78.218,36.538 77.972,35.896 76.972,36.013ZM84.419,31.223C80.114,30.622 71.728,33.113 67.12,32.82C66.604,35.244 69.042,34.761 70.581,34.683C75.978,34.405 82.536,33.473 86.815,32.82C86.606,31.643 85.358,31.355 84.419,31.223ZM124.179,32.785C124.718,33.3 126.119,31.632 125.972,30.275C125.513,29.416 124.8,28.815 123.462,28.839C122.869,29.782 122.81,32.672 124.179,32.785ZM46.56,33.086C45.569,31.971 45.819,31.662 44.965,31.223C42.145,29.778 38.362,33.9 35.65,34.417C35.21,32.349 35.134,29.842 32.458,28.03C29.741,26.191 22.442,25.968 24.208,30.158C26.024,30.09 26.004,28.527 27.668,28.296C31.625,27.747 34.908,31.944 33.257,36.28C31.712,37.132 29.714,38.942 28.199,38.94C28.552,35.726 30.558,32.804 30.595,30.158C28.141,29.273 27.626,32.977 27.135,34.683C25.309,41.051 23.748,48.886 24.742,55.971C27.095,53.002 26.006,46.592 27.402,42.666C30.02,41.991 32.16,41.307 33.788,39.473C34.506,38.664 34.641,37.532 35.385,36.811C37.689,34.585 41.06,33.371 44.697,33.086L46.56,33.086ZM84.634,44.586C83.692,46.142 82.897,47.831 84.454,48.788C86.171,46.688 88.577,45.284 91.64,44.529C92.439,46.391 91.36,50.127 93.767,50.383C94.788,48.824 93.183,46.254 93.503,43.729C95.866,43.167 98.726,41.686 100.687,41.602C100.15,43.593 98.835,47.378 98.558,50.383C98.329,52.847 97.796,56.533 100.687,56.769C100.605,53.266 100.65,47.96 102.017,45.061C102.509,45.634 102.796,46.412 104.146,46.125C106.921,44.641 108.269,40.314 110.533,39.207C107.849,43.248 107.287,54.728 113.46,50.118C116.199,48.071 117.572,43.235 120.912,41.868C120.175,45.655 117.41,54.577 122.509,55.706C121.041,51.708 122.517,46.04 123.039,41.069C118.351,35.872 115.335,47.964 110.798,48.788C109.763,44.248 113.75,41.141 112.662,36.546C112.203,36.56 111.98,36.341 111.863,36.013C107.033,36.417 107.044,41.663 103.611,43.464C103.521,39.518 105.146,36.001 104.943,32.82C104.166,32.891 104.128,32.218 103.347,32.288C102.746,34.17 102.449,36.356 102.017,38.409C99.44,39.646 96.743,40.76 93.503,41.336C93.085,37.584 93.851,32.649 92.437,29.893C91.796,30.001 91.858,29.406 91.108,29.627C91.069,31.321 91.255,32.093 91.372,33.086L91.108,36.546C91.108,36.546 91.323,37.448 91.44,38.557C91.632,40.37 91.677,42.145 91.677,42.145C91.339,42.349 90.724,42.638 89.2,43.182C88.257,43.518 88.099,43.642 87.382,43.729C85.845,43.916 84.634,44.586 84.634,44.586Z"
              style="fill:rgb(17,21,23);"/>
        <path d="M42.543,35.712C43.211,34.819 44.001,33.89 44.695,33.087L44.718,32.914L45.61,32.876L46.295,35.215L46.232,35.456L42.543,35.712Z"
              style="fill:rgb(17,21,23);"/>
        <path d="M39.821,44.638C39.706,43.407 39.767,42.228 39.968,41.193C40.296,39.508 41.06,37.933 41.917,36.605L42.068,36.386L42.698,39.091L42.388,39.096C42.284,39.076 42,40.073 41.748,41.338L41.722,41.473C41.475,42.753 41.358,43.799 41.462,43.821L41.596,44.002L39.897,45.048L39.821,44.638Z"
              style="fill:rgb(17,21,23);fill-rule:nonzero;"/>
        <path d="M46.295,35.215C46.306,35.215 46.743,35.183 46.827,35.48C48.899,38.631 47.628,46.19 44.697,47.722C41.868,44.178 45.705,38.834 46.295,35.215L42.613,35.614C42.368,35.943 42.13,36.285 41.899,36.638L42.388,39.096C42.495,39.118 42.374,40.192 42.118,41.496C41.862,42.8 41.569,43.84 41.462,43.821L39.819,44.592C39.841,44.819 39.872,45.094 39.905,45.327C42.05,46.481 42.243,49.862 44.963,49.851C48.274,49.838 51.457,40.375 48.689,34.95C48.257,34.103 47.257,33.872 46.558,33.087L45.528,32.87L45.601,35.284L46.295,35.215Z"
              style="fill:rgb(17,21,23);fill-rule:nonzero;"/>
        <path d="M60.399,30.692C60.399,30.692 60.872,32.944 59.327,35.352C57.855,37.644 54.632,39.596 54.632,39.596L53.958,42.416C58.245,39.942 62.81,37.541 62.532,30.502C62.53,30.477 62.53,30.451 62.527,30.426L60.399,30.692Z"
              style="fill:rgb(17,21,23);fill-rule:nonzero;"/>
        <path d="M54.151,42.131C54.151,42.131 55.3,37.25 55.894,35.396C57.348,30.852 60.399,30.692 60.399,30.692L60.498,31.099L62.516,30.725L62.527,30.426C60.351,26.722 55.519,29.937 54.811,33.086C54.471,33.456 53.554,33.248 53.214,33.619C53.038,34.593 53.79,34.639 53.747,35.48C52.989,37.246 51.913,39.788 51.085,42.401C50.435,44.446 48.554,48.532 51.618,49.584C52.548,48.386 52.384,46.092 52.947,44.529C55.41,46.048 59.29,48.879 63.592,49.051C66.767,49.18 70.855,48.189 72.642,45.859C66.479,48.913 57.158,47.014 54.097,42.351L54.151,42.131Z"
              style="fill:rgb(17,21,23);fill-rule:nonzero;"/>
        <path d="M91.108,36.546L91.608,36.416L91.399,33.206L91.372,33.086C88.778,35.454 87.489,39.278 85.784,42.666C85.501,43.228 85.052,43.894 84.634,44.586L84.769,44.576L87.382,43.729C87.382,43.729 87.931,42.562 88.415,41.663C88.907,40.743 89.937,38.899 90.417,37.973C90.599,37.622 91.108,36.546 91.108,36.546Z"
              style="fill:rgb(17,21,23);fill-rule:nonzero;"/>
        <path d="M100.405,70.5C100.368,70.329 100.491,70.212 100.774,70.153C100.837,70.139 100.893,70.129 100.939,70.122L101.072,70.106C101.144,70.09 101.193,70.06 101.217,70.016C101.241,69.973 101.243,69.904 101.223,69.809C101.185,69.634 101.151,69.5 101.12,69.409C101.088,69.317 101.07,69.262 101.067,69.245C100.956,68.924 100.858,68.623 100.775,68.345C100.458,67.289 100.239,66.469 100.115,65.888L100.011,65.334L99.908,64.785C99.862,64.571 99.809,64.373 99.746,64.193C99.63,64.25 99.523,64.289 99.428,64.31C99.209,64.357 99.081,64.294 99.045,64.123C99.026,64.039 99.079,63.95 99.202,63.856C99.325,63.762 99.493,63.676 99.705,63.598C100.073,63.464 100.398,63.368 100.68,63.307C100.79,63.284 100.892,63.292 100.986,63.332C101.081,63.373 101.136,63.434 101.154,63.514C101.17,63.591 101.154,63.664 101.104,63.736C101.055,63.807 100.983,63.852 100.887,63.873C100.833,63.885 100.787,63.893 100.749,63.897L100.639,63.92C100.543,63.94 100.479,63.971 100.445,64.011C100.41,64.051 100.402,64.114 100.419,64.198C100.575,64.926 100.856,65.963 101.261,67.307C101.392,67.741 101.51,68.119 101.618,68.44C101.672,68.608 101.721,68.765 101.764,68.911C101.807,69.057 101.85,69.227 101.891,69.42L101.979,69.834C102.073,69.803 102.167,69.778 102.263,69.758C102.651,69.675 102.872,69.76 102.925,70.012L102.939,70.075L102.629,70.333L102.262,70.422C102.041,70.481 101.848,70.528 101.684,70.563C100.876,70.735 100.45,70.713 100.405,70.5Z"
              style="fill:rgb(17,21,23);fill-rule:nonzero;"/>
        <path d="M97.934,71.362C97.799,71.456 97.645,71.518 97.47,71.549C97.364,71.569 97.265,71.548 97.171,71.489C97.078,71.429 97.023,71.356 97.007,71.267C96.903,70.693 96.788,69.88 96.66,68.831C96.533,67.788 96.418,66.977 96.314,66.399L96.3,66.319C96.163,65.877 96.075,65.545 96.034,65.319C95.911,64.635 96.012,64.264 96.338,64.206C96.435,64.188 96.522,64.2 96.604,64.24C96.685,64.28 96.731,64.336 96.744,64.411C96.763,64.512 96.772,64.653 96.771,64.831C96.77,65.01 96.778,65.151 96.797,65.252C96.849,65.541 96.934,65.973 97.052,66.549C97.169,67.122 97.254,67.553 97.307,67.846C97.27,67.955 97.27,68.111 97.307,68.315L97.33,68.448C97.373,68.684 97.415,68.971 97.457,69.309C97.499,69.647 97.542,69.938 97.586,70.18C97.676,70.677 97.879,70.897 98.195,70.84L98.455,70.783C98.541,70.763 98.648,70.743 98.777,70.719C99.282,70.627 99.554,70.688 99.592,70.899C99.606,70.973 99.574,71.044 99.499,71.113C99.423,71.181 99.329,71.231 99.217,71.262C98.857,71.239 98.43,71.273 97.934,71.362Z"
              style="fill:rgb(17,21,23);fill-rule:nonzero;"/>
        <path d="M93.976,69.51C93.926,69.166 93.856,68.808 93.764,68.436C93.672,68.064 93.546,67.598 93.385,67.039C93.258,66.62 93.152,66.251 93.068,65.934C92.903,67.818 92.814,69.145 92.798,69.914C92.966,69.969 93.392,69.967 94.076,69.908C94.033,69.805 93.999,69.672 93.976,69.51ZM94.821,71.856C94.71,71.819 94.645,71.732 94.625,71.597C94.592,71.368 94.487,71.004 94.312,70.508L94.222,70.283L92.801,70.326C92.753,70.546 92.723,70.895 92.712,71.37C92.704,71.737 92.648,71.985 92.545,72.116C92.477,72.198 92.385,72.248 92.27,72.264C92.153,72.282 92.046,72.268 91.945,72.225C91.845,72.181 91.789,72.12 91.776,72.038C91.775,72.027 91.779,72.008 91.79,71.981L91.798,71.936C92.158,69.971 92.364,68.063 92.417,66.213C92.412,66.055 92.407,65.905 92.401,65.765C92.385,65.493 92.384,65.273 92.397,65.106C92.411,64.94 92.448,64.811 92.511,64.718L92.988,64.649C93.127,64.629 93.245,64.636 93.345,64.67C93.444,64.706 93.5,64.766 93.513,64.855C93.593,65.405 93.809,66.21 94.16,67.274C94.51,68.348 94.718,69.118 94.785,69.582C94.794,69.643 94.835,69.75 94.909,69.907C94.984,70.062 95.025,70.17 95.034,70.23C95.046,70.308 95.123,70.518 95.267,70.858C95.403,71.182 95.48,71.401 95.496,71.514L95.498,71.525C95.521,71.684 95.457,71.799 95.307,71.868C95.095,71.899 94.933,71.895 94.821,71.856Z"
              style="fill:rgb(17,21,23);fill-rule:nonzero;"/>
        <path d="M89.397,72.37L89.335,71.95L89.273,71.535L89.252,71.159C89.205,71.078 89.041,70.282 88.757,68.769C88.474,67.256 88.303,66.299 88.242,65.895C87.694,65.946 87.335,65.94 87.163,65.875C87.061,65.837 87.005,65.78 86.996,65.706C86.989,65.641 87.031,65.581 87.124,65.524C87.216,65.467 87.315,65.432 87.422,65.42C87.635,65.396 87.959,65.375 88.394,65.359C88.81,65.348 89.134,65.329 89.365,65.303C89.407,65.298 89.444,65.292 89.476,65.286L89.594,65.272C89.891,65.239 90.049,65.309 90.068,65.483C90.078,65.569 90.038,65.645 89.95,65.713C89.861,65.78 89.755,65.821 89.63,65.835C89.532,65.846 89.408,65.848 89.257,65.84L88.968,65.834L88.959,65.884L88.953,65.95C89.033,66.662 89.229,67.686 89.539,69.024C89.85,70.362 90.046,71.388 90.126,72.104C90.136,72.189 90.095,72.27 90.002,72.347C89.91,72.424 89.802,72.469 89.677,72.484L89.397,72.37Z"
              style="fill:rgb(17,21,23);fill-rule:nonzero;"/>
        <path d="M84.673,72.655C84.658,72.479 84.795,72.379 85.083,72.354C85.147,72.349 85.203,72.346 85.25,72.346L85.384,72.344C85.458,72.338 85.51,72.315 85.539,72.275C85.568,72.235 85.579,72.166 85.57,72.07C85.555,71.891 85.537,71.754 85.518,71.659C85.497,71.564 85.486,71.507 85.485,71.49C85.414,71.158 85.355,70.848 85.307,70.561C85.123,69.474 85.006,68.634 84.955,68.041L84.92,67.479L84.886,66.921C84.867,66.704 84.838,66.501 84.799,66.314C84.676,66.357 84.565,66.383 84.468,66.391C84.245,66.411 84.126,66.332 84.111,66.159C84.104,66.073 84.167,65.991 84.301,65.913C84.434,65.834 84.611,65.77 84.831,65.718C85.212,65.631 85.547,65.576 85.835,65.551C85.946,65.541 86.046,65.562 86.135,65.614C86.224,65.664 86.272,65.732 86.278,65.814C86.285,65.893 86.26,65.963 86.202,66.028C86.145,66.092 86.067,66.129 85.97,66.137C85.914,66.142 85.867,66.145 85.83,66.144L85.719,66.154C85.621,66.163 85.553,66.184 85.514,66.219C85.475,66.256 85.459,66.317 85.466,66.402C85.53,67.144 85.681,68.207 85.918,69.592C85.994,70.039 86.064,70.428 86.131,70.76C86.165,70.933 86.194,71.094 86.219,71.246C86.243,71.396 86.265,71.569 86.281,71.766L86.317,72.188C86.414,72.169 86.512,72.155 86.609,72.147C87.004,72.113 87.213,72.224 87.234,72.481L87.24,72.545L86.901,72.763L86.525,72.807C86.299,72.836 86.103,72.86 85.935,72.873C85.112,72.945 84.692,72.872 84.673,72.655Z"
              style="fill:rgb(17,21,23);fill-rule:nonzero;"/>
        <path d="M81.326,73.279C81.046,72.538 80.625,71.127 80.064,69.046C79.51,67 79.145,65.704 78.97,65.154C79.018,65.008 79.146,64.928 79.356,64.916C79.509,64.909 79.733,65.366 80.028,66.289C80.305,67.145 80.607,68.202 80.936,69.459L81.443,71.383C81.496,70.836 81.575,70.168 81.681,69.38C81.807,68.394 81.894,67.561 81.939,66.88C81.984,66.2 81.99,65.559 81.957,64.958C82.098,64.803 82.268,64.721 82.468,64.709L82.775,64.816C82.762,64.903 82.72,65.402 82.649,66.313C82.593,67.047 82.516,67.879 82.419,68.806C82.295,70.004 82.198,70.861 82.129,71.377C82.015,72.241 81.912,72.821 81.821,73.116C81.766,73.288 81.714,73.375 81.668,73.377C81.532,73.385 81.419,73.352 81.326,73.279Z"
              style="fill:rgb(17,21,23);fill-rule:nonzero;"/>
        <path d="M74.57,71.003C74.568,70.656 74.547,70.291 74.508,69.911C74.467,69.53 74.406,69.051 74.322,68.475C74.254,68.042 74.201,67.663 74.161,67.337C73.74,69.18 73.469,70.483 73.348,71.243C73.507,71.321 73.93,71.376 74.615,71.411C74.586,71.303 74.572,71.168 74.57,71.003ZM75.087,73.444C74.981,73.391 74.929,73.296 74.928,73.161C74.926,72.927 74.872,72.553 74.767,72.039L74.709,71.803L73.295,71.651C73.217,71.863 73.141,72.204 73.064,72.673C73.006,73.036 72.916,73.274 72.796,73.389C72.717,73.461 72.619,73.498 72.503,73.498C72.387,73.499 72.281,73.471 72.188,73.414C72.094,73.358 72.047,73.289 72.047,73.206C72.047,73.196 72.053,73.178 72.066,73.153L72.08,73.11C72.707,71.211 73.172,69.35 73.477,67.525C73.494,67.368 73.51,67.218 73.523,67.079C73.545,66.806 73.573,66.588 73.609,66.425C73.646,66.262 73.701,66.139 73.775,66.056L74.258,66.053C74.397,66.052 74.514,66.076 74.607,66.123C74.701,66.17 74.748,66.24 74.749,66.329C74.753,66.884 74.856,67.712 75.06,68.814C75.258,69.926 75.359,70.717 75.362,71.186C75.362,71.247 75.389,71.36 75.441,71.524C75.493,71.688 75.521,71.801 75.521,71.862C75.522,71.94 75.569,72.159 75.665,72.516C75.756,72.856 75.802,73.082 75.803,73.198L75.803,73.207C75.804,73.37 75.725,73.473 75.566,73.521C75.353,73.522 75.192,73.497 75.087,73.444Z"
              style="fill:rgb(17,21,23);fill-rule:nonzero;"/>
        <path d="M69.312,73.418C69.312,73.418 69.285,73.393 69.231,73.342C69.176,73.292 69.135,73.209 69.106,73.094C69.076,72.989 69.051,72.916 69.029,72.876L69.037,72.855L69.037,72.829C69.043,72.661 68.9,72.202 68.607,71.454C68.316,70.706 67.979,69.899 67.594,69.034C67.211,68.168 66.916,67.539 66.71,67.145L66.523,72.679L66.576,72.756C66.635,72.833 66.663,72.895 66.661,72.942C66.658,73.035 66.612,73.114 66.523,73.178C66.436,73.245 66.332,73.274 66.217,73.27C65.904,73.26 65.756,73.032 65.771,72.584L65.82,70.7L65.869,68.815C65.877,68.585 65.902,68.245 65.946,67.79C65.99,67.333 66.016,66.993 66.022,66.766C66.034,66.423 66.219,66.159 66.574,65.973L66.572,66.043C66.609,66.027 66.645,66.019 66.678,66.02C66.901,66.028 67.171,66.332 67.486,66.934C67.732,67.405 67.959,67.917 68.166,68.473C68.373,69.028 68.611,69.709 68.877,70.518L69.068,71.088C69.305,71.805 69.457,72.235 69.522,72.377C69.766,70.831 69.924,68.975 69.996,66.809C69.998,66.759 69.997,66.711 69.994,66.664L69.985,66.513C69.992,66.295 70.115,66.19 70.353,66.198C70.483,66.202 70.582,66.247 70.649,66.331C70.717,66.416 70.748,66.52 70.744,66.641L70.716,67.473C70.685,68.121 70.632,68.887 70.558,69.774C70.483,70.659 70.397,71.45 70.296,72.143C70.195,72.836 70.097,73.239 70,73.35C69.732,73.402 69.564,73.426 69.493,73.424C69.372,73.42 69.312,73.418 69.312,73.418Z"
              style="fill:rgb(17,21,23);fill-rule:nonzero;"/>
        <path d="M61.603,72.641C61.615,72.466 61.765,72.389 62.053,72.409C62.118,72.414 62.174,72.419 62.221,72.426L62.352,72.446C62.426,72.452 62.481,72.436 62.517,72.401C62.552,72.366 62.572,72.299 62.58,72.204C62.592,72.025 62.596,71.887 62.591,71.789C62.586,71.692 62.584,71.635 62.586,71.618C62.566,71.278 62.557,70.963 62.553,70.672C62.541,69.57 62.557,68.722 62.598,68.129L62.65,67.567L62.704,67.011C62.719,66.793 62.722,66.588 62.712,66.398C62.584,66.421 62.471,66.43 62.373,66.422C62.15,66.407 62.045,66.312 62.057,66.137C62.063,66.051 62.138,65.98 62.282,65.924C62.426,65.868 62.611,65.831 62.836,65.815C63.227,65.788 63.565,65.785 63.854,65.805C63.965,65.813 64.06,65.848 64.141,65.914C64.221,65.979 64.258,66.051 64.252,66.133C64.246,66.212 64.21,66.28 64.143,66.333C64.076,66.388 63.994,66.413 63.897,66.405C63.84,66.401 63.794,66.397 63.757,66.39L63.646,66.382C63.548,66.375 63.477,66.387 63.433,66.416C63.389,66.446 63.363,66.502 63.357,66.588C63.306,67.331 63.289,68.405 63.308,69.81C63.314,70.262 63.323,70.659 63.337,70.997C63.344,71.172 63.347,71.337 63.348,71.491C63.35,71.643 63.343,71.817 63.329,72.014L63.299,72.437C63.398,72.433 63.496,72.434 63.594,72.442C63.988,72.469 64.178,72.612 64.16,72.869L64.155,72.933L63.786,73.096L63.408,73.081C63.18,73.075 62.982,73.067 62.814,73.055C61.991,72.997 61.587,72.86 61.603,72.641Z"
              style="fill:rgb(17,21,23);fill-rule:nonzero;"/>
        <path d="M59.262,68.153C59.394,67.971 59.504,67.763 59.593,67.53C59.682,67.295 59.734,67.085 59.753,66.9C59.766,66.764 59.771,66.649 59.766,66.553C59.761,66.457 59.743,66.35 59.713,66.233C59.678,66.114 59.608,66.018 59.506,65.945C59.402,65.872 59.268,65.825 59.101,65.805L59.074,65.868C59.051,65.905 59.039,65.934 59.037,65.956C59.002,66.319 58.969,66.751 58.939,67.252C58.908,67.756 58.877,68.168 58.846,68.49C58.99,68.446 59.129,68.334 59.262,68.153ZM59.644,72.469C59.496,72.114 59.385,71.71 59.313,71.26L59.251,70.882C59.088,69.819 58.973,69.206 58.904,69.04L58.731,69.024C58.709,69.237 58.688,69.431 58.666,69.606C58.644,69.78 58.622,69.981 58.6,70.208C58.505,71.174 58.522,71.944 58.648,72.518L58.459,72.796L58.063,72.757L57.89,72.579L57.976,71.848C58.036,71.231 58.094,70.231 58.149,68.848C58.197,67.503 58.252,66.501 58.317,65.842C58.351,65.497 58.525,65.338 58.842,65.37C59.176,65.403 59.471,65.477 59.73,65.594C59.987,65.711 60.185,65.864 60.32,66.051C60.457,66.239 60.514,66.455 60.489,66.697L60.414,67.466C60.404,67.57 60.367,67.688 60.303,67.823C60.237,67.956 60.172,68.071 60.107,68.164L59.797,68.534L59.543,68.832L59.712,69.902C59.789,70.459 59.873,70.922 59.963,71.289C60.054,71.657 60.173,71.995 60.32,72.303L60.397,72.452C60.441,72.532 60.473,72.598 60.49,72.653C60.508,72.706 60.516,72.758 60.51,72.808C60.502,72.886 60.466,72.95 60.4,72.997C60.334,73.044 60.256,73.063 60.162,73.055C59.963,73.036 59.79,72.84 59.644,72.469Z"
              style="fill:rgb(17,21,23);fill-rule:nonzero;"/>
        <path d="M53.192,72.113C53.022,72.01 52.892,71.881 52.8,71.724C52.705,71.559 52.631,71.389 52.58,71.214C52.528,71.039 52.498,70.844 52.489,70.63C52.473,70.256 52.495,69.851 52.554,69.414C52.648,68.541 52.766,67.582 52.907,66.536C52.941,66.284 52.977,65.928 53.015,65.471L53.055,64.967C53.163,64.827 53.275,64.764 53.391,64.78C53.502,64.794 53.592,64.873 53.662,65.016C53.732,65.161 53.757,65.308 53.736,65.46L53.337,68.425C53.302,68.684 53.285,69.075 53.285,69.594C53.278,70.131 53.259,70.521 53.226,70.762C53.154,71.295 53.419,71.602 54.02,71.682C54.694,71.774 55.295,69.866 55.822,65.958L55.904,65.346L55.918,65.25C55.916,65.225 55.918,65.196 55.922,65.164C55.934,65.076 55.97,65.014 56.031,64.981C56.092,64.948 56.197,64.942 56.345,64.961C56.465,64.977 56.558,65.018 56.625,65.082C56.691,65.148 56.727,65.217 56.731,65.289C56.729,65.375 56.722,65.461 56.71,65.547C56.691,65.689 56.65,65.872 56.587,66.094C56.524,66.317 56.483,66.496 56.465,66.63C56.449,66.75 56.419,66.901 56.377,67.079C56.323,67.299 56.291,67.451 56.28,67.532C56.275,67.568 56.273,67.598 56.275,67.623C56.275,67.653 56.274,67.685 56.269,67.72C55.834,70.946 55.006,72.477 53.787,72.312C53.56,72.282 53.362,72.215 53.192,72.113Z"
              style="fill:rgb(17,21,23);fill-rule:nonzero;"/>
        <path d="M49.15,71.475C48.991,71.516 48.825,71.522 48.65,71.493C48.544,71.473 48.458,71.42 48.39,71.332C48.322,71.245 48.296,71.157 48.312,71.069C48.411,70.493 48.581,69.69 48.82,68.66C49.059,67.636 49.229,66.835 49.329,66.256L49.342,66.177C49.365,65.716 49.397,65.372 49.436,65.147C49.554,64.462 49.776,64.149 50.103,64.205C50.199,64.221 50.278,64.262 50.34,64.328C50.402,64.393 50.427,64.462 50.414,64.537C50.397,64.639 50.356,64.774 50.294,64.941C50.232,65.108 50.192,65.243 50.175,65.346C50.125,65.635 50.057,66.071 49.97,66.651C49.884,67.229 49.816,67.664 49.766,67.956C49.693,68.045 49.64,68.193 49.604,68.397L49.581,68.53C49.541,68.766 49.481,69.05 49.405,69.382C49.329,69.714 49.27,70.002 49.228,70.246C49.142,70.743 49.257,71.019 49.574,71.075L49.838,71.109C49.926,71.121 50.034,71.137 50.163,71.16C50.668,71.247 50.902,71.397 50.866,71.608C50.853,71.682 50.799,71.739 50.705,71.777C50.611,71.815 50.506,71.83 50.389,71.821C50.059,71.676 49.646,71.561 49.15,71.475Z"
              style="fill:rgb(17,21,23);fill-rule:nonzero;"/>
        <path d="M44.751,69.87C44.852,69.382 44.996,68.577 45.182,67.455C45.368,66.332 45.522,65.311 45.644,64.391C45.767,63.471 45.805,62.969 45.76,62.887C45.782,62.782 45.83,62.696 45.903,62.629C45.977,62.562 46.064,62.515 46.165,62.489C46.251,62.466 46.363,62.457 46.502,62.463C46.642,62.468 46.767,62.481 46.877,62.499C46.941,62.509 47.063,62.533 47.241,62.57C47.451,62.614 47.597,62.671 47.68,62.744C47.763,62.815 47.79,62.922 47.76,63.062C47.745,63.135 47.695,63.184 47.612,63.209C47.528,63.234 47.431,63.235 47.322,63.211L47.186,63.178C47.132,63.164 47.064,63.147 46.981,63.13C46.721,63.077 46.583,63.089 46.566,63.17C46.497,63.503 46.43,63.997 46.365,64.653C46.299,65.288 46.237,65.772 46.177,66.106C46.187,66.105 46.293,66.106 46.497,66.11C46.701,66.114 46.862,66.128 46.981,66.153C47.086,66.174 47.169,66.228 47.231,66.312C47.292,66.396 47.314,66.48 47.296,66.565C47.274,66.666 47.2,66.725 47.073,66.743C46.989,66.754 46.918,66.762 46.861,66.767C46.803,66.772 46.732,66.768 46.648,66.758C46.494,66.745 46.35,66.726 46.217,66.702L46.059,66.674C45.982,67.042 45.906,67.635 45.831,68.454C45.76,69.229 45.682,69.824 45.596,70.237L45.574,70.272L45.547,70.298C45.557,70.34 45.558,70.387 45.547,70.436C45.528,70.527 45.469,70.591 45.371,70.629C45.272,70.667 45.153,70.672 45.011,70.643C44.742,70.586 44.655,70.329 44.751,69.87Z"
              style="fill:rgb(17,21,23);fill-rule:nonzero;"/>
        <path d="M41.526,21.572C41.448,21.515 41.39,21.421 41.351,21.291C41.172,20.69 40.943,19.953 40.664,19.08C40.384,18.207 40.155,17.47 39.977,16.869L39.817,16.334C39.836,16.627 39.836,17.143 39.818,17.881C39.801,18.625 39.815,19.187 39.86,19.566L39.88,19.633L39.898,19.841C39.911,19.949 39.917,20.039 39.917,20.112C39.917,20.185 39.908,20.268 39.891,20.358C39.861,20.55 39.745,20.676 39.544,20.736C39.218,20.833 38.957,20.554 38.762,19.898C38.654,19.535 38.489,19.158 38.269,18.768C38.048,18.378 37.739,17.907 37.341,17.357C36.949,16.823 36.697,16.469 36.586,16.293C36.717,16.796 36.834,17.222 36.939,17.572C37.082,18.053 37.316,18.769 37.644,19.722C37.985,20.737 38.218,21.454 38.343,21.873C38.389,22.027 38.359,22.18 38.253,22.331C38.029,22.397 37.856,22.39 37.734,22.306C37.612,22.223 37.52,22.075 37.457,21.862C37.412,21.711 37.337,21.421 37.234,20.992C37.132,20.567 37.059,20.28 37.015,20.133C36.879,19.677 36.669,18.997 36.386,18.096C36.128,17.294 35.917,16.617 35.752,16.064C35.617,15.608 35.488,15.151 35.366,14.694L35.699,14.416C35.835,14.38 36.033,14.49 36.295,14.749C36.679,15.143 37.237,15.928 37.966,17.103C38.237,17.539 38.492,17.963 38.732,18.377C38.993,18.827 39.141,19.078 39.176,19.131C39.169,18.979 39.167,18.727 39.168,18.371C39.167,18.267 39.165,18.168 39.164,18.075C39.163,17.982 39.163,17.894 39.163,17.812C39.157,17.123 39.148,16.611 39.137,16.279C39.125,15.946 39.098,15.537 39.056,15.053C39.009,14.566 38.941,14.11 38.853,13.685L38.835,13.623C38.826,13.528 38.859,13.439 38.935,13.357C39.01,13.275 39.11,13.216 39.235,13.179C39.315,13.154 39.398,13.161 39.482,13.197C39.565,13.234 39.617,13.285 39.637,13.351C39.9,14.235 40.318,15.482 40.889,17.091C41.469,18.745 41.884,19.992 42.135,20.833C42.167,20.939 42.169,21.049 42.145,21.161C42.12,21.273 42.073,21.371 42.006,21.454C41.938,21.538 41.862,21.593 41.777,21.618C41.688,21.644 41.604,21.629 41.526,21.572Z"
              style="fill:rgb(17,21,23);fill-rule:nonzero;"/>
        <path d="M45.131,17.988C45.051,17.65 44.949,17.3 44.825,16.937C44.701,16.574 44.534,16.122 44.324,15.579C44.161,15.173 44.023,14.815 43.912,14.507C43.914,16.397 43.941,17.727 43.993,18.494C44.166,18.534 44.59,18.495 45.266,18.375C45.214,18.277 45.169,18.148 45.131,17.988ZM46.18,20.251C46.066,20.223 45.993,20.143 45.961,20.01C45.908,19.783 45.772,19.432 45.554,18.953L45.445,18.736L44.033,18.904C44.004,19.129 44.005,19.477 44.036,19.952C44.061,20.318 44.027,20.571 43.935,20.71C43.875,20.798 43.788,20.855 43.674,20.883C43.561,20.909 43.452,20.905 43.348,20.871C43.244,20.837 43.183,20.78 43.164,20.7C43.161,20.689 43.164,20.67 43.172,20.643L43.175,20.598C43.361,18.607 43.398,16.688 43.287,14.842C43.269,14.685 43.251,14.536 43.232,14.396C43.192,14.127 43.171,13.908 43.17,13.741C43.169,13.574 43.195,13.441 43.249,13.345L43.719,13.233C43.855,13.201 43.974,13.197 44.076,13.224C44.178,13.249 44.239,13.306 44.259,13.393C44.387,13.933 44.673,14.717 45.118,15.744C45.56,16.784 45.835,17.532 45.943,17.989C45.958,18.048 46.008,18.152 46.096,18.301C46.184,18.449 46.235,18.553 46.249,18.612C46.267,18.688 46.363,18.891 46.536,19.218C46.701,19.528 46.796,19.739 46.822,19.851L46.825,19.861C46.862,20.018 46.809,20.138 46.665,20.219C46.457,20.268 46.295,20.279 46.18,20.251Z"
              style="fill:rgb(17,21,23);fill-rule:nonzero;"/>
        <path d="M51.66,19.177C51.66,19.177 51.628,19.158 51.564,19.12C51.501,19.083 51.442,19.011 51.39,18.904C51.339,18.808 51.298,18.742 51.269,18.708L51.272,18.685L51.267,18.659C51.236,18.493 50.999,18.076 50.555,17.407C50.11,16.739 49.608,16.022 49.049,15.258C48.491,14.494 48.068,13.941 47.784,13.601L48.778,19.048L48.847,19.111C48.919,19.175 48.96,19.229 48.969,19.275C48.985,19.366 48.958,19.454 48.885,19.536C48.812,19.618 48.719,19.67 48.604,19.691C48.296,19.747 48.103,19.555 48.022,19.114L47.67,17.263L47.318,15.41C47.276,15.185 47.229,14.847 47.175,14.393C47.12,13.937 47.072,13.599 47.032,13.377C46.97,13.039 47.093,12.741 47.402,12.485L47.415,12.554C47.448,12.529 47.481,12.515 47.513,12.509C47.733,12.468 48.062,12.709 48.498,13.229C48.838,13.637 49.168,14.09 49.489,14.588C49.81,15.087 50.187,15.702 50.619,16.435L50.927,16.952C51.311,17.602 51.55,17.99 51.644,18.115C51.553,16.552 51.313,14.705 50.923,12.574C50.915,12.524 50.903,12.477 50.891,12.433L50.85,12.287C50.811,12.072 50.908,11.943 51.142,11.9C51.271,11.877 51.377,11.899 51.46,11.968C51.543,12.036 51.596,12.131 51.618,12.25L51.768,13.069C51.875,13.709 51.986,14.469 52.103,15.351C52.218,16.232 52.301,17.022 52.35,17.722C52.4,18.42 52.389,18.834 52.318,18.964C52.067,19.071 51.907,19.132 51.839,19.144C51.719,19.166 51.66,19.177 51.66,19.177Z"
              style="fill:rgb(17,21,23);fill-rule:nonzero;"/>
        <path d="M55.547,18.596C55.356,18.541 55.196,18.45 55.066,18.323C54.931,18.189 54.816,18.045 54.72,17.889C54.625,17.733 54.544,17.554 54.48,17.349C54.367,16.992 54.282,16.595 54.225,16.158C54.087,15.292 53.95,14.335 53.813,13.287C53.78,13.035 53.722,12.684 53.639,12.232L53.545,11.735C53.613,11.571 53.705,11.481 53.82,11.466C53.932,11.451 54.04,11.504 54.145,11.624C54.25,11.744 54.312,11.88 54.332,12.032L54.722,14.999C54.756,15.258 54.841,15.639 54.978,16.141C55.112,16.661 55.195,17.042 55.226,17.283C55.296,17.816 55.632,18.043 56.233,17.964C56.908,17.875 56.989,15.877 56.476,11.968L56.395,11.355L56.382,11.26C56.375,11.235 56.369,11.207 56.364,11.175C56.353,11.087 56.372,11.018 56.422,10.97C56.472,10.922 56.571,10.888 56.719,10.869C56.839,10.852 56.94,10.868 57.021,10.913C57.102,10.958 57.154,11.016 57.178,11.085C57.198,11.169 57.214,11.253 57.225,11.339C57.244,11.48 57.252,11.667 57.25,11.898C57.247,12.13 57.254,12.313 57.272,12.448C57.288,12.569 57.298,12.721 57.304,12.904C57.31,13.131 57.318,13.285 57.329,13.367C57.334,13.402 57.34,13.433 57.348,13.457C57.356,13.484 57.363,13.517 57.368,13.552C57.792,16.779 57.393,18.473 56.172,18.633C55.946,18.663 55.737,18.65 55.547,18.596Z"
              style="fill:rgb(17,21,23);fill-rule:nonzero;"/>
        <path d="M59.962,17.323C59.914,16.827 59.814,16.017 59.657,14.889C59.503,13.762 59.347,12.741 59.191,11.826C59.035,10.911 58.924,10.421 58.856,10.355C58.846,10.248 58.866,10.152 58.917,10.066C58.967,9.98 59.036,9.91 59.125,9.854C59.2,9.808 59.305,9.767 59.439,9.729C59.574,9.693 59.697,9.668 59.808,9.654C59.872,9.645 59.995,9.631 60.177,9.613C60.39,9.593 60.547,9.604 60.647,9.649C60.747,9.693 60.805,9.787 60.818,9.93C60.825,10.004 60.793,10.065 60.72,10.114C60.647,10.162 60.556,10.192 60.444,10.203L60.304,10.211C60.248,10.213 60.179,10.218 60.095,10.226C59.831,10.251 59.702,10.305 59.71,10.387C59.742,10.726 59.825,11.217 59.957,11.863C60.083,12.487 60.167,12.969 60.208,13.307C60.218,13.302 60.319,13.271 60.516,13.215C60.712,13.158 60.87,13.124 60.991,13.112C61.097,13.102 61.192,13.128 61.276,13.19C61.358,13.252 61.405,13.326 61.413,13.412C61.423,13.516 61.37,13.594 61.253,13.648C61.177,13.685 61.112,13.713 61.058,13.734C61.003,13.756 60.935,13.774 60.853,13.789C60.7,13.822 60.558,13.847 60.423,13.863L60.264,13.884C60.3,14.258 60.403,14.847 60.574,15.65C60.736,16.412 60.837,17.003 60.878,17.424L60.868,17.463L60.85,17.497C60.872,17.534 60.886,17.578 60.891,17.628C60.899,17.721 60.862,17.8 60.78,17.865C60.697,17.931 60.583,17.97 60.44,17.983C60.166,18.01 60.007,17.79 59.962,17.323Z"
              style="fill:rgb(17,21,23);fill-rule:nonzero;"/>
        <path d="M65.088,15.172C65.065,14.825 65.022,14.463 64.96,14.084C64.897,13.706 64.808,13.232 64.69,12.662C64.597,12.234 64.521,11.859 64.462,11.536C64.151,13.401 63.958,14.717 63.882,15.482C64.045,15.551 64.47,15.582 65.157,15.576C65.122,15.471 65.099,15.336 65.088,15.172ZM65.748,17.577C65.64,17.53 65.581,17.439 65.572,17.304C65.557,17.071 65.481,16.701 65.345,16.193L65.272,15.961L63.853,15.893C63.788,16.109 63.731,16.454 63.683,16.928C63.646,17.292 63.571,17.536 63.458,17.658C63.384,17.735 63.288,17.777 63.171,17.785C63.056,17.793 62.948,17.77 62.853,17.72C62.755,17.669 62.704,17.602 62.698,17.519C62.698,17.51 62.704,17.491 62.716,17.465L62.728,17.421C63.239,15.489 63.594,13.603 63.79,11.764C63.798,11.605 63.806,11.456 63.81,11.315C63.815,11.043 63.831,10.823 63.857,10.658C63.884,10.493 63.932,10.367 64.001,10.28L64.482,10.248C64.622,10.239 64.739,10.256 64.836,10.298C64.933,10.34 64.983,10.405 64.989,10.495C65.026,11.049 65.179,11.869 65.446,12.957C65.71,14.056 65.858,14.839 65.889,15.307C65.894,15.368 65.926,15.478 65.987,15.64C66.05,15.801 66.083,15.911 66.087,15.972C66.093,16.051 66.153,16.266 66.27,16.617C66.38,16.95 66.44,17.174 66.447,17.289L66.448,17.299C66.458,17.46 66.386,17.569 66.231,17.626C66.017,17.64 65.856,17.624 65.748,17.577Z"
              style="fill:rgb(17,21,23);fill-rule:nonzero;"/>
        <path d="M70.267,17.007C70.041,16.688 69.827,16.287 69.624,15.803C69.422,15.318 69.24,14.826 69.079,14.326C68.96,13.973 68.863,13.654 68.789,13.374C68.462,13.915 68.31,14.558 68.335,15.302L68.401,17.337C68.407,17.509 68.312,17.598 68.116,17.604C67.972,17.608 67.856,17.581 67.767,17.521C67.679,17.462 67.633,17.378 67.63,17.27L67.52,13.932C67.507,13.553 67.534,12.957 67.601,12.144C67.664,11.373 67.689,10.78 67.675,10.369C67.755,10.227 67.895,10.152 68.095,10.145C68.216,10.142 68.321,10.172 68.409,10.234C68.497,10.298 68.544,10.376 68.546,10.47L68.548,10.502C68.427,10.67 68.386,11.34 68.425,12.51L68.438,12.902L68.936,12.079C69.254,11.546 69.547,11.091 69.814,10.713C70.081,10.335 70.272,10.144 70.384,10.141C70.532,10.136 70.663,10.157 70.774,10.205C70.885,10.254 70.942,10.324 70.945,10.417C70.945,10.428 70.836,10.579 70.617,10.869C69.925,11.809 69.544,12.337 69.473,12.454L69.47,12.782L69.466,13.11C69.473,13.31 69.562,13.652 69.734,14.136C69.906,14.619 70.106,15.098 70.335,15.572C70.562,16.047 70.749,16.371 70.895,16.546L71.09,16.738C71.19,16.839 71.265,16.925 71.308,16.997C71.353,17.068 71.376,17.145 71.379,17.228C71.382,17.31 71.345,17.381 71.267,17.438C71.189,17.497 71.095,17.527 70.983,17.531C70.764,17.538 70.524,17.363 70.267,17.007Z"
              style="fill:rgb(17,21,23);fill-rule:nonzero;"/>
        <path d="M73.366,17.149L73.351,16.725L73.333,16.306L73.352,15.93C73.314,15.845 73.233,15.035 73.111,13.501C72.989,11.968 72.919,10.997 72.903,10.589C72.353,10.582 71.995,10.537 71.832,10.456C71.733,10.407 71.685,10.345 71.684,10.27C71.683,10.205 71.731,10.149 71.829,10.102C71.927,10.055 72.029,10.03 72.137,10.03C72.351,10.028 72.675,10.042 73.109,10.071C73.524,10.104 73.849,10.12 74.081,10.119C74.124,10.118 74.161,10.116 74.194,10.112L74.313,10.112C74.61,10.109 74.761,10.196 74.762,10.372C74.763,10.458 74.716,10.53 74.62,10.588C74.524,10.645 74.414,10.675 74.288,10.676C74.19,10.677 74.067,10.665 73.917,10.641L73.63,10.605L73.616,10.653L73.603,10.718C73.608,11.435 73.694,12.474 73.862,13.837C74.03,15.2 74.116,16.242 74.12,16.962C74.122,17.048 74.071,17.124 73.972,17.19C73.872,17.258 73.759,17.292 73.634,17.292L73.366,17.149Z"
              style="fill:rgb(17,21,23);fill-rule:nonzero;"/>
        <path d="M77.1,17.408C76.921,17.324 76.776,17.209 76.669,17.062C76.557,16.909 76.466,16.748 76.396,16.579C76.326,16.41 76.275,16.221 76.244,16.008C76.189,15.638 76.168,15.232 76.181,14.792C76.182,13.914 76.197,12.947 76.228,11.892C76.234,11.638 76.232,11.281 76.223,10.822L76.209,10.316C76.302,10.165 76.406,10.091 76.523,10.095C76.635,10.098 76.733,10.167 76.818,10.302C76.902,10.437 76.943,10.581 76.939,10.735L76.855,13.726C76.847,13.987 76.871,14.376 76.926,14.893C76.977,15.429 76.998,15.818 76.991,16.061C76.976,16.599 77.272,16.875 77.877,16.893C78.558,16.911 78.954,14.951 79.065,11.01L79.082,10.393L79.085,10.296C79.081,10.27 79.08,10.242 79.081,10.21C79.083,10.12 79.113,10.056 79.17,10.017C79.228,9.977 79.33,9.959 79.48,9.963C79.601,9.967 79.697,9.997 79.771,10.055C79.844,10.112 79.887,10.177 79.898,10.249C79.905,10.335 79.907,10.421 79.905,10.507C79.901,10.65 79.879,10.836 79.84,11.064C79.801,11.292 79.779,11.475 79.775,11.61C79.772,11.732 79.759,11.884 79.735,12.066C79.705,12.291 79.689,12.444 79.687,12.526C79.686,12.562 79.688,12.593 79.691,12.618C79.695,12.647 79.696,12.68 79.695,12.715C79.604,15.969 78.942,17.578 77.712,17.543C77.483,17.537 77.279,17.491 77.1,17.408Z"
              style="fill:rgb(17,21,23);fill-rule:nonzero;"/>
        <path d="M82.685,12.987C82.811,12.802 82.914,12.59 82.994,12.352C83.074,12.115 83.12,11.904 83.131,11.718C83.14,11.582 83.14,11.467 83.132,11.371C83.123,11.275 83.102,11.169 83.067,11.052C83.027,10.935 82.955,10.842 82.85,10.772C82.744,10.703 82.607,10.661 82.44,10.647L82.415,10.711C82.395,10.749 82.383,10.778 82.382,10.8C82.359,11.165 82.342,11.598 82.33,12.099C82.317,12.604 82.301,13.018 82.281,13.339C82.425,13.291 82.559,13.174 82.685,12.987ZM83.222,17.288C83.062,16.937 82.937,16.538 82.848,16.092L82.772,15.716C82.571,14.659 82.434,14.05 82.359,13.888L82.186,13.877C82.172,14.091 82.157,14.286 82.142,14.461C82.127,14.636 82.111,14.837 82.098,15.066C82.038,16.034 82.082,16.803 82.229,17.372L82.05,17.657L81.652,17.632L81.474,17.46L81.533,16.727C81.571,16.108 81.593,15.106 81.599,13.723C81.598,12.377 81.618,11.374 81.658,10.712C81.68,10.365 81.849,10.202 82.165,10.222C82.5,10.242 82.799,10.307 83.061,10.414C83.323,10.521 83.525,10.667 83.668,10.85C83.812,11.032 83.875,11.245 83.86,11.488L83.813,12.261C83.806,12.364 83.773,12.484 83.713,12.62C83.653,12.757 83.593,12.873 83.53,12.97L83.233,13.35L82.99,13.657L83.198,14.72C83.295,15.274 83.395,15.733 83.499,16.097C83.603,16.46 83.733,16.794 83.893,17.098L83.975,17.243C84.022,17.321 84.055,17.387 84.074,17.44C84.095,17.493 84.104,17.545 84.1,17.595C84.095,17.674 84.061,17.738 83.997,17.788C83.934,17.838 83.855,17.859 83.762,17.853C83.562,17.842 83.382,17.653 83.222,17.288Z"
              style="fill:rgb(17,21,23);fill-rule:nonzero;"/>
        <path d="M91.111,12.322C91.365,12.036 91.503,11.804 91.525,11.626C91.536,11.534 91.514,11.415 91.456,11.268C91.399,11.123 91.322,10.993 91.227,10.88C91.13,10.768 91.03,10.704 90.929,10.692C90.795,10.676 90.663,10.749 90.535,10.914L90.463,11.495L90.387,12.227C90.364,12.444 90.336,12.689 90.302,12.963L90.287,13.086C90.582,12.862 90.857,12.608 91.111,12.322ZM90.533,17.841C90.76,17.808 90.927,17.76 91.033,17.697C90.274,16.615 89.84,15.423 89.729,14.121C89.154,14.659 88.816,15.339 88.715,16.16C88.669,16.533 88.733,16.884 88.909,17.212C89,17.383 89.137,17.525 89.317,17.642C89.498,17.758 89.711,17.831 89.956,17.861C90.113,17.881 90.306,17.874 90.533,17.841ZM88.806,17.903C88.516,17.683 88.305,17.421 88.174,17.116C88.046,16.818 87.999,16.535 88.032,16.265C88.067,15.984 88.146,15.658 88.267,15.287C88.299,15.172 88.371,15.026 88.482,14.849L88.704,14.48C88.745,14.414 88.837,14.293 88.979,14.117C89.12,13.941 89.232,13.805 89.314,13.707C89.365,13.641 89.489,13.496 89.686,13.271C89.708,13.09 89.723,12.841 89.73,12.524C89.735,12.211 89.75,11.957 89.774,11.761L89.887,10.855C89.919,10.596 90.024,10.409 90.203,10.296C90.381,10.183 90.605,10.143 90.873,10.176C91.105,10.205 91.328,10.278 91.543,10.397C91.759,10.516 91.929,10.66 92.054,10.829C92.179,10.997 92.231,11.167 92.209,11.338C92.156,11.764 92.015,12.142 91.783,12.47C91.553,12.799 91.219,13.113 90.782,13.412C90.733,13.461 90.684,13.507 90.631,13.551C90.458,13.695 90.366,13.809 90.356,13.89C90.331,14.096 90.373,14.446 90.483,14.942C90.594,15.437 90.734,15.919 90.907,16.386C91.079,16.852 91.236,17.16 91.378,17.307C91.737,16.832 91.965,16.207 92.062,15.433L92.067,15.385C92.03,15.38 92.002,15.375 91.984,15.369C91.967,15.363 91.951,15.351 91.939,15.331C91.932,15.319 91.926,15.31 91.922,15.305C91.918,15.299 91.914,15.294 91.91,15.289C91.901,15.281 91.893,15.26 91.882,15.227L91.855,15.169L91.889,14.892C92.143,14.923 92.439,14.946 92.775,14.961C93.111,14.976 93.358,14.973 93.516,14.952C93.779,15.028 93.901,15.141 93.883,15.29C93.87,15.393 93.789,15.46 93.64,15.49C93.49,15.52 93.312,15.522 93.104,15.497C93.094,15.496 93.087,15.493 93.083,15.489L93.063,15.486L92.708,15.442C92.564,16.604 92.273,17.358 91.836,17.705C92.095,17.964 92.382,18.113 92.696,18.152C92.762,18.16 92.859,18.167 92.99,18.173C93.116,18.178 93.212,18.184 93.276,18.191L93.521,18.39C93.503,18.528 93.431,18.616 93.305,18.652C93.178,18.689 92.994,18.692 92.753,18.663C92.332,18.61 91.891,18.417 91.43,18.082C90.863,18.293 90.312,18.365 89.774,18.299C89.418,18.255 89.096,18.123 88.806,17.903Z"
              style="fill:rgb(17,21,23);fill-rule:nonzero;"/>
        <path d="M97.732,18.734C97.826,18.245 97.957,17.438 98.126,16.313C98.295,15.188 98.433,14.164 98.541,13.243C98.649,12.321 98.681,11.819 98.635,11.737C98.655,11.632 98.701,11.545 98.773,11.477C98.846,11.409 98.933,11.36 99.033,11.333C99.118,11.309 99.231,11.299 99.37,11.302C99.51,11.305 99.635,11.315 99.745,11.333C99.81,11.342 99.932,11.363 100.111,11.397C100.321,11.437 100.468,11.493 100.552,11.564C100.636,11.635 100.665,11.741 100.637,11.882C100.624,11.955 100.575,12.005 100.491,12.031C100.408,12.057 100.311,12.06 100.202,12.038L100.065,12.007C100.01,11.992 99.941,11.977 99.859,11.962C99.599,11.911 99.46,11.927 99.444,12.008C99.38,12.342 99.32,12.837 99.266,13.494C99.21,14.129 99.155,14.614 99.101,14.95C99.11,14.948 99.217,14.947 99.421,14.948C99.625,14.949 99.786,14.961 99.905,14.984C100.011,15.005 100.095,15.056 100.158,15.14C100.22,15.223 100.243,15.306 100.227,15.391C100.208,15.492 100.133,15.553 100.006,15.572C99.923,15.586 99.853,15.595 99.794,15.6C99.736,15.605 99.665,15.603 99.582,15.595C99.427,15.583 99.283,15.566 99.149,15.545L98.99,15.519C98.92,15.889 98.853,16.483 98.791,17.303C98.731,18.078 98.662,18.674 98.583,19.089L98.562,19.123L98.535,19.151C98.546,19.193 98.547,19.239 98.537,19.288C98.52,19.38 98.462,19.445 98.364,19.484C98.267,19.524 98.147,19.53 98.005,19.503C97.734,19.451 97.644,19.195 97.732,18.734Z"
              style="fill:rgb(17,21,23);fill-rule:nonzero;"/>
        <path d="M100.501,19.637C100.541,19.466 100.701,19.412 100.982,19.476C101.046,19.49 101.1,19.504 101.145,19.518L101.272,19.558C101.345,19.574 101.402,19.567 101.442,19.538C101.482,19.509 101.512,19.446 101.534,19.352C101.573,19.178 101.598,19.042 101.608,18.945C101.618,18.849 101.625,18.791 101.628,18.773C101.662,18.436 101.7,18.123 101.741,17.835C101.897,16.743 102.041,15.908 102.171,15.328L102.309,14.781L102.446,14.239C102.495,14.026 102.528,13.824 102.547,13.635C102.417,13.638 102.304,13.629 102.208,13.607C101.991,13.558 101.901,13.448 101.94,13.276C101.958,13.192 102.043,13.134 102.195,13.101C102.345,13.066 102.534,13.059 102.759,13.076C103.149,13.109 103.484,13.158 103.766,13.222C103.875,13.246 103.964,13.297 104.034,13.373C104.102,13.449 104.127,13.527 104.109,13.607C104.092,13.685 104.046,13.745 103.971,13.788C103.897,13.832 103.812,13.844 103.716,13.821C103.662,13.81 103.617,13.797 103.582,13.785L103.472,13.761C103.376,13.739 103.305,13.739 103.257,13.762C103.208,13.784 103.175,13.837 103.157,13.921C102.992,14.647 102.812,15.706 102.618,17.098C102.554,17.546 102.503,17.938 102.466,18.274C102.445,18.45 102.424,18.613 102.402,18.764C102.379,18.915 102.347,19.087 102.303,19.278L102.209,19.692C102.308,19.704 102.405,19.72 102.5,19.741C102.886,19.829 103.051,19.998 102.995,20.25L102.98,20.312L102.591,20.417L102.22,20.345C101.995,20.305 101.8,20.267 101.636,20.229C100.832,20.047 100.454,19.85 100.501,19.637Z"
              style="fill:rgb(17,21,23);fill-rule:nonzero;"/>
        <path d="M104.9,21.091C104.739,21.119 104.572,21.11 104.401,21.065C104.296,21.038 104.215,20.977 104.156,20.884C104.095,20.79 104.078,20.7 104.1,20.613C104.249,20.049 104.488,19.264 104.815,18.258C105.141,17.259 105.379,16.476 105.529,15.908L105.549,15.83C105.613,15.373 105.673,15.033 105.732,14.811C105.909,14.14 106.158,13.846 106.477,13.931C106.572,13.955 106.648,14.003 106.704,14.073C106.76,14.143 106.779,14.216 106.759,14.288C106.733,14.389 106.681,14.519 106.605,14.681C106.529,14.842 106.477,14.973 106.451,15.073C106.376,15.357 106.271,15.785 106.134,16.356C105.999,16.924 105.893,17.352 105.818,17.64C105.738,17.722 105.671,17.863 105.619,18.064L105.584,18.194C105.523,18.427 105.44,18.704 105.335,19.028C105.231,19.352 105.147,19.634 105.083,19.873C104.955,20.361 105.046,20.646 105.357,20.728L105.617,20.786C105.704,20.805 105.81,20.831 105.936,20.864C106.432,20.995 106.653,21.165 106.598,21.372C106.579,21.445 106.521,21.496 106.423,21.526C106.327,21.557 106.22,21.561 106.105,21.542C105.789,21.37 105.387,21.22 104.9,21.091Z"
              style="fill:rgb(17,21,23);fill-rule:nonzero;"/>
        <path d="M107.584,21.728C107.525,21.661 107.506,21.594 107.528,21.525C107.659,21.104 107.934,20.591 108.353,19.982C108.773,19.374 109.354,18.616 110.096,17.707C110.75,16.914 111.215,16.322 111.494,15.933L110.95,15.796C110.699,15.74 110.501,15.69 110.359,15.645C110.265,15.616 110.193,15.56 110.14,15.478C110.087,15.396 110.073,15.318 110.096,15.243C110.159,15.045 110.69,15.102 111.692,15.414C112.141,15.555 112.335,15.723 112.275,15.917C112.199,16.16 111.997,16.463 111.668,16.825C111.329,17.195 111.118,17.456 111.037,17.607C110.757,18.109 110.266,18.847 109.562,19.819C108.848,20.809 108.461,21.35 108.403,21.443L108.636,21.517C108.703,21.537 108.8,21.562 108.928,21.591C109.06,21.621 109.158,21.645 109.22,21.665L109.222,21.66C109.591,21.775 109.75,21.919 109.696,22.09C109.671,22.168 109.605,22.216 109.498,22.232C109.389,22.25 109.271,22.238 109.142,22.198C109.057,22.172 108.925,22.125 108.746,22.058C108.567,21.99 108.432,21.942 108.343,21.915C108.291,21.898 108.205,21.892 108.085,21.896C107.962,21.899 107.875,21.893 107.821,21.876C107.723,21.845 107.644,21.796 107.584,21.728Z"
              style="fill:rgb(17,21,23);fill-rule:nonzero;"/>
    </g>
</svg>